<?xml version="1.0" ?><svg viewBox="0 0 64 64" xmlns="http://www.w3.org/2000/svg"><g id="facemask-virus-covid19-corona-mask"><path d="M55.578,25.88,38.12,8.422a2,2,0,0,0-2.539-.24l-8.433,5.735A49.976,49.976,0,0,0,13.917,27.148L8.182,35.581a2,2,0,0,0,.24,2.539L25.88,55.578a2,2,0,0,0,2.539.24l8.433-5.735A49.976,49.976,0,0,0,50.083,36.852l5.735-8.433A2,2,0,0,0,55.578,25.88Z" style="fill:#57a4ff"/><path d="M55.578,25.88,38.12,8.422a2,2,0,0,0-2.539-.24l-.417.284.974.973c11.049,11.049,10.749,29.249-.964,39.593a13.624,13.624,0,0,1-1.322,1.051l-8.016,5.451.044.044a2,2,0,0,0,2.539.24l8.433-5.735A49.976,49.976,0,0,0,50.083,36.852l5.735-8.433A2,2,0,0,0,55.578,25.88Z" style="fill:#2488ff"/><path d="M57.456,5.13a8,8,0,0,0-11.314,0l-5.657,5.657,2.122,2.121,5.656-5.657a5.008,5.008,0,0,1,7.072,0l1.414,1.414a5.008,5.008,0,0,1,0,7.072l-5.657,5.656,2.121,2.122,5.657-5.657a8,8,0,0,0,0-11.314Z" style="fill:#d1e7f8"/><path d="M8.665,56.749,7.251,55.335a5.008,5.008,0,0,1,0-7.072l5.657-5.656-2.121-2.122L5.13,46.142a8,8,0,0,0,0,11.314L6.544,58.87a8,8,0,0,0,11.314,0l5.657-5.657-2.122-2.121-5.656,5.657A5.008,5.008,0,0,1,8.665,56.749Z" style="fill:#d1e7f8"/><path d="M59.58,5.84,58.16,4.42a9,9,0,0,0-12.72,0L40.49,9.37,38.83,7.71a3.026,3.026,0,0,0-3.81-.36l-8.44,5.74A50.913,50.913,0,0,0,13.09,26.58L7.35,35.02a3.026,3.026,0,0,0,.36,3.81l1.66,1.66L4.42,45.44a9,9,0,0,0,0,12.72l1.42,1.42a9.005,9.005,0,0,0,12.72,0l4.95-4.95,1.66,1.66a3,3,0,0,0,2.13.87,3.037,3.037,0,0,0,1.68-.51l8.44-5.74A50.913,50.913,0,0,0,50.91,37.42l5.74-8.44a3.037,3.037,0,0,0,.51-1.68,3,3,0,0,0-.87-2.13l-1.66-1.66,4.95-4.95A9,9,0,0,0,59.58,5.84ZM17.15,58.16a7.007,7.007,0,0,1-9.9,0L5.84,56.75a7.007,7.007,0,0,1,0-9.9l4.95-4.95.7.71L6.54,47.56a6,6,0,0,0,0,8.48l1.42,1.42a6.011,6.011,0,0,0,8.48,0l4.95-4.95.71.7ZM12.91,44.02l7.07,7.07-4.95,4.95a4.008,4.008,0,0,1-5.66,0L7.96,54.63a4.008,4.008,0,0,1,0-5.66ZM54.87,26.59a1,1,0,0,1,.12,1.27l-5.73,8.43A49.083,49.083,0,0,1,36.29,49.26l-8.43,5.73a1,1,0,0,1-1.27-.12L22.1,50.39v-.01l-4.24-4.24L9.13,37.41a1,1,0,0,1-.12-1.27l5.73-8.43A49.083,49.083,0,0,1,27.71,14.74l8.43-5.73a.978.978,0,0,1,.57-.17,1,1,0,0,1,.7.29l4.49,4.48v.01ZM44.02,12.91l4.95-4.95a4.008,4.008,0,0,1,5.66,0l1.41,1.41a4.008,4.008,0,0,1,0,5.66l-4.95,4.95Zm9.19,9.19-.7-.71,4.95-4.95a6,6,0,0,0,0-8.48L56.04,6.54a6.011,6.011,0,0,0-8.48,0l-4.95,4.95-.71-.7,4.95-4.95a7.007,7.007,0,0,1,9.9,0l1.41,1.41a7.007,7.007,0,0,1,0,9.9Z" style="fill:#231f20"/><path d="M45.435,22.808a1,1,0,0,0-1.414,0L22.808,44.021a1,1,0,1,0,1.414,1.414L45.435,24.222A1,1,0,0,0,45.435,22.808Z" style="fill:#231f20"/><path d="M41.192,18.565a1,1,0,0,0-1.414,0L18.565,39.778a1,1,0,1,0,1.414,1.414L41.192,19.979A1,1,0,0,0,41.192,18.565Z" style="fill:#231f20"/><path d="M36.949,14.322a1,1,0,0,0-1.414,0L14.322,35.536a1,1,0,1,0,1.414,1.414L36.949,15.736A1,1,0,0,0,36.949,14.322Z" style="fill:#231f20"/><path d="M27.051,48.264a1,1,0,1,0,1.414,1.414L49.678,28.464a1,1,0,1,0-1.414-1.414Z" style="fill:#231f20"/></g></svg>