<?xml version="1.0" ?><svg style="enable-background:new 0 0 512 512;" version="1.1" viewBox="0 0 512 512" xml:space="preserve" xmlns="http://www.w3.org/2000/svg" xmlns:xlink="http://www.w3.org/1999/xlink"><g id="_x31_1_x2C__Beat_x2C__heart_x2C__pulse_x2C__time_x2C__care"><g id="XMLID_4175_"><g id="XMLID_4176_"><path d="M98.67,325.15C84.27,302.01,75.76,277.6,75.76,249.9     c0-49.73,40.37-90.11,90.11-90.11c45.08,0,67.61,22.54,90.15,67.58c20.07-40.18,40.19-62.44,76.3-66.77l0.01-0.01     c2.55,3.5,5.41,6.85,8.57,10.01c20.63,20.64,49.24,28.45,75.9,23.42c12.17,15.36,19.44,34.78,19.44,55.88     c0,90.16-90.11,145.49-180.22,235.6C193.57,423.07,131.13,377.34,98.67,325.15z" id="XMLID_4253_" style="fill:#D94556;"/><path d="M446,395.5c11.05,0,20,8.95,20,20s-8.95,20-20,20s-20-8.95-20-20     S434.95,395.5,446,395.5z" id="XMLID_332_" style="fill:#FFD400;"/><circle cx="101" cy="90.5" id="XMLID_331_" r="30" style="fill:#FFD400;"/><path d="M296,325.15c0-13.811,11.19-25,25-25s25,11.189,25,25c0,13.8-11.19,25-25,25     S296,338.95,296,325.15z" id="XMLID_330_" style="fill:#3F4751;"/><circle cx="468.5" cy="323" id="XMLID_329_" r="7.5" style="fill:#5CBEFF;"/><circle cx="373.5" cy="448" id="XMLID_328_" r="7.5" style="fill:#5CBEFF;"/><circle cx="293.5" cy="53" id="XMLID_327_" r="7.5" style="fill:#5CBEFF;"/><circle cx="203.5" cy="108" id="XMLID_326_" r="7.5" style="fill:#5CBEFF;"/><circle cx="168.5" cy="458" id="XMLID_325_" r="7.5" style="fill:#5CBEFF;"/><circle cx="53.5" cy="393" id="XMLID_324_" r="7.5" style="fill:#5CBEFF;"/><circle cx="43.5" cy="163" id="XMLID_323_" r="7.5" style="fill:#5CBEFF;"/><path d="M211.452,378.73c-0.037,0-0.074,0-0.111-0.001     c-2.398-0.053-4.421-1.801-4.821-4.166l-16.95-100.316l-15.326,59.951c-0.531,2.076-2.325,3.583-4.461,3.747     c-2.138,0.157-4.14-1.051-4.981-3.021l-9.24-21.628l-3.631,13.182c-0.598,2.169-2.57,3.672-4.82,3.672H31c-2.761,0-5-2.238-5-5     c0-2.762,2.239-5,5-5h112.301l6.418-23.299c0.564-2.049,2.363-3.518,4.483-3.66c2.118-0.141,4.1,1.069,4.935,3.023l9.068,21.226     l17.519-68.529c0.585-2.289,2.69-3.855,5.051-3.757c2.36,0.098,4.329,1.833,4.723,4.163l16.531,97.841l7.91-36.906     c0.436-2.031,2.083-3.582,4.137-3.896c2.049-0.309,4.087,0.678,5.108,2.488l8.777,15.567l11.985-31.452     c0.7-1.836,2.41-3.093,4.371-3.211c1.957-0.111,3.81,0.923,4.726,2.662l14.603,27.739H321c2.761,0,5,2.238,5,5     c0,2.762-2.239,5-5,5h-50.37c-1.856,0-3.56-1.028-4.424-2.671l-10.854-20.617l-11.839,31.068     c-0.69,1.811-2.366,3.061-4.299,3.206c-1.938,0.134-3.776-0.842-4.729-2.531l-7.53-13.357l-10.615,49.529     C215.844,377.088,213.803,378.73,211.452,378.73z" id="XMLID_322_" style="fill:#A0B5C5;"/><path d="M461.1,51.4c-33.19-33.2-87.01-33.2-120.2,0c-30.04,30.03-32.9,76.95-8.57,110.19     c2.55,3.5,5.41,6.85,8.57,10.01c20.63,20.64,49.24,28.45,75.9,23.42c16.23-3.05,31.74-10.86,44.3-23.42     C494.3,138.41,494.3,84.59,461.1,51.4z" id="XMLID_321_" style="fill:#3F4751;"/><path d="M401,51.5c33.14,0,60,26.86,60,60s-26.86,60-60,60s-60-26.86-60-60     S367.86,51.5,401,51.5z" id="XMLID_4183_" style="fill:#D0DCE7;"/><path d="M426,87.87l-17.64,32.76c-3.54,6.58-12.43,7.89-17.72,2.6     c-5.28-5.29-3.98-14.17,2.61-17.72L426,87.87z" id="XMLID_319_" style="fill:#D94556;"/></g></g></g><g id="Layer_1"/></svg>