<?xml version="1.0" ?><svg style="enable-background:new 0 0 512 512;" version="1.1" viewBox="0 0 512 512" xml:space="preserve" xmlns="http://www.w3.org/2000/svg" xmlns:xlink="http://www.w3.org/1999/xlink"><g id="_x31_1_x2C__Beat_x2C__heart_x2C__pulse_x2C__time_x2C__care"><g id="XMLID_8588_"><path d="M96.17,329.65C81.77,306.51,73.26,282.1,73.26,254.4    c0-49.73,40.37-90.11,90.11-90.11c45.08,0,67.61,22.54,90.15,67.58c20.07-40.18,40.19-62.44,76.3-66.77l0.01-0.01    c2.55,3.5,5.41,6.85,8.57,10.01c20.63,20.64,49.24,28.45,75.9,23.42c12.17,15.36,19.44,34.78,19.44,55.88    c0,90.16-90.11,145.49-180.22,235.6C191.07,427.57,128.63,381.84,96.17,329.65z" id="XMLID_8694_" style="fill:#9BC9FF;"/><path d="M443.5,400c11.05,0,20,8.95,20,20s-8.95,20-20,20s-20-8.95-20-20    S432.45,400,443.5,400z" id="XMLID_589_" style="fill:#FFFFFF;"/><circle cx="98.5" cy="95" id="XMLID_588_" r="30" style="fill:#FFFFFF;"/><path d="M293.5,329.65c0-13.811,11.19-25,25-25s25,11.189,25,25c0,13.8-11.19,25-25,25    S293.5,343.45,293.5,329.65z" id="XMLID_587_" style="fill:#FFFFFF;"/><path d="M458.6,54.9c33.2,33.19,33.2,87.01,0,120.2c-12.56,12.56-28.07,20.37-44.3,23.42    c-26.66,5.03-55.27-2.78-75.9-23.42c-3.16-3.16-6.02-6.51-8.57-10.01c-24.33-33.24-21.47-80.16,8.57-110.19    C371.59,21.7,425.41,21.7,458.6,54.9z M458.5,115c0-33.14-26.86-60-60-60s-60,26.86-60,60s26.86,60,60,60S458.5,148.14,458.5,115z    " id="XMLID_8677_" style="fill:#FFFFFF;"/><path d="M398.5,55c33.14,0,60,26.86,60,60s-26.86,60-60,60s-60-26.86-60-60    S365.36,55,398.5,55z" id="XMLID_8671_" style="fill:#9BC9FF;"/><path d="M423.5,91.37l-17.64,32.76c-3.54,6.58-12.43,7.89-17.72,2.6    c-5.28-5.29-3.98-14.17,2.61-17.72L423.5,91.37z" id="XMLID_583_" style="fill:#FFFFFF;"/><circle cx="466" cy="327.5" id="XMLID_582_" r="7.5" style="fill:#1E81CE;"/><circle cx="371" cy="452.5" id="XMLID_581_" r="7.5" style="fill:#1E81CE;"/><circle cx="291" cy="57.5" id="XMLID_580_" r="7.5" style="fill:#1E81CE;"/><circle cx="201" cy="112.5" id="XMLID_579_" r="7.5" style="fill:#1E81CE;"/><circle cx="166" cy="462.5" id="XMLID_578_" r="7.5" style="fill:#1E81CE;"/><circle cx="51" cy="397.5" id="XMLID_577_" r="7.5" style="fill:#1E81CE;"/><circle cx="41" cy="167.5" id="XMLID_576_" r="7.5" style="fill:#1E81CE;"/><path d="M208.952,383.23c-0.037,0-0.074,0-0.111-0.001    c-2.398-0.053-4.421-1.801-4.821-4.166l-16.95-100.316l-15.326,59.951c-0.531,2.076-2.325,3.583-4.461,3.747    c-2.138,0.157-4.14-1.051-4.981-3.021l-9.24-21.628l-3.631,13.182c-0.598,2.169-2.57,3.672-4.82,3.672H28.5c-2.761,0-5-2.238-5-5    c0-2.762,2.239-5,5-5h112.301l6.418-23.299c0.564-2.049,2.363-3.518,4.483-3.66c2.118-0.141,4.1,1.069,4.935,3.023l9.068,21.226    l17.519-68.529c0.585-2.289,2.69-3.855,5.051-3.757c2.36,0.098,4.329,1.833,4.723,4.163l16.531,97.841l7.91-36.906    c0.436-2.031,2.083-3.582,4.137-3.896c2.049-0.31,4.087,0.678,5.108,2.488l8.777,15.567l11.985-31.452    c0.7-1.836,2.41-3.093,4.371-3.211c1.957-0.111,3.81,0.923,4.726,2.662l14.603,27.739H318.5c2.761,0,5,2.238,5,5    c0,2.762-2.239,5-5,5h-50.37c-1.856,0-3.56-1.028-4.424-2.671l-10.854-20.617l-11.839,31.068c-0.69,1.811-2.366,3.061-4.299,3.206    c-1.938,0.134-3.776-0.842-4.729-2.531l-7.53-13.357l-10.615,49.529C213.344,381.588,211.303,383.23,208.952,383.23z" id="XMLID_575_" style="fill:#1E81CE;"/><path d="M318.5,359.65c-16.542,0-30-13.458-30-30c0-16.542,13.458-30,30-30    s30,13.458,30,30C348.5,346.192,335.042,359.65,318.5,359.65z M318.5,309.65c-11.028,0-20,8.972-20,20c0,11.028,8.972,20,20,20    s20-8.972,20-20C338.5,318.622,329.528,309.65,318.5,309.65z" id="XMLID_8636_" style="fill:#1E81CE;"/><path d="M398.5,180c-35.841,0-65-29.159-65-65s29.159-65,65-65s65,29.159,65,65    S434.341,180,398.5,180z M398.5,60c-30.327,0-55,24.673-55,55s24.673,55,55,55s55-24.673,55-55S428.827,60,398.5,60z" id="XMLID_8628_" style="fill:#1E81CE;"/><path d="M253.52,495c-1.279,0-2.559-0.488-3.535-1.464    c-20.57-20.563-40.971-39.155-60.701-57.135c-40.388-36.805-75.268-68.591-97.359-104.11    C76.001,306.702,68.26,281.224,68.26,254.4c0-52.444,42.666-95.11,95.11-95.11c46.105,0,69.576,23.373,90.146,61.696    c17.981-33.546,38.674-56.409,75.708-60.85c2.733-0.331,5.23,1.627,5.56,4.369c0.329,2.742-1.628,5.231-4.369,5.56    c-31.354,3.76-50.982,21.116-72.422,64.04c-0.846,1.694-2.577,2.765-4.471,2.766c0,0-0.001,0-0.002,0    c-1.893,0-3.624-1.069-4.471-2.762c-23.949-47.856-46.37-64.818-85.679-64.818c-46.93,0-85.11,38.18-85.11,85.11    c0,24.901,7.247,48.651,22.155,72.609c21.36,34.344,55.766,65.697,95.604,102.002c18.687,17.028,37.974,34.604,57.5,53.936    c19.528-19.339,38.818-36.922,57.506-53.958C376.793,369.039,428.74,321.688,428.74,254.4c0-19.367-6.349-37.616-18.359-52.775    c-1.715-2.164-1.351-5.309,0.814-7.024c2.165-1.716,5.308-1.352,7.024,0.814c13.425,16.943,20.522,37.34,20.522,58.985    c0,33.04-11.444,63.461-36.017,95.736c-21.885,28.747-52.524,56.675-84.961,86.243c-19.732,17.986-40.136,36.585-60.707,57.156    C256.08,494.512,254.799,495,253.52,495z" id="XMLID_570_" style="fill:#1E81CE;"/><path d="M398.483,204.998c-24.034,0-46.627-9.363-63.62-26.363    c-3.305-3.306-6.359-6.873-9.075-10.601c-12.542-17.135-18.599-38.306-17.049-59.605c1.566-21.522,10.844-41.788,26.125-57.065    C351.86,34.363,374.46,25,398.5,25s46.64,9.363,63.636,26.365C479.137,68.36,488.5,90.96,488.5,115s-9.363,46.64-26.365,63.636    c-12.876,12.875-29.097,21.45-46.912,24.798C409.724,204.472,404.091,204.998,398.483,204.998z M398.5,35    c-21.368,0-41.457,8.323-56.564,23.435c-27.646,27.637-31.116,72.219-8.071,103.702c2.418,3.318,5.131,6.488,8.071,9.428    c15.104,15.111,35.186,23.433,56.547,23.433c4.987,0,9.997-0.468,14.89-1.391c15.831-2.975,30.246-10.597,41.692-22.042    C470.177,156.456,478.5,136.368,478.5,115s-8.323-41.456-23.435-56.564C439.957,43.323,419.868,35,398.5,35z" id="XMLID_8617_" style="fill:#1E81CE;"/><path d="M396.015,135.001c-4.304,0-8.356-1.682-11.411-4.736    c-3.648-3.655-5.308-8.675-4.557-13.777c0.751-5.102,3.787-9.432,8.331-11.88l32.751-17.64c1.944-1.047,4.345-0.695,5.906,0.866    c1.562,1.561,1.914,3.962,0.867,5.906l-17.64,32.76C407.441,131.743,401.982,135.001,396.015,135.001z M411.194,103.677    l-18.073,9.734c-1.735,0.935-2.894,2.587-3.18,4.532c-0.287,1.945,0.347,3.86,1.738,5.254c1.162,1.162,2.703,1.804,4.336,1.804    c2.316,0,4.35-1.212,5.441-3.241L411.194,103.677z" id="XMLID_8609_" style="fill:#1E81CE;"/><path d="M98.5,130c-19.299,0-35-15.701-35-35s15.701-35,35-35s35,15.701,35,35    S117.799,130,98.5,130z M98.5,70c-13.785,0-25,11.215-25,25s11.215,25,25,25s25-11.215,25-25S112.285,70,98.5,70z" id="XMLID_8601_" style="fill:#1E81CE;"/><path d="M443.5,445c-13.785,0-25-11.215-25-25s11.215-25,25-25s25,11.215,25,25    S457.285,445,443.5,445z M443.5,405c-8.271,0-15,6.728-15,15s6.729,15,15,15s15-6.728,15-15S451.771,405,443.5,405z" id="XMLID_8590_" style="fill:#1E81CE;"/></g></g><g id="Layer_1"/></svg>