<?xml version="1.0" ?><svg viewBox="0 0 64 64" xmlns="http://www.w3.org/2000/svg"><title/><g id="Observatory"><path d="M61.9239,14.7979l-4-9.68a.9994.9994,0,0,0-1.5029-.4336l-8.81,6.25a1,1,0,0,0-.25,1.374,22.1813,22.1813,0,0,1,2.5732,5.1377,1,1,0,0,0,.9444.6738,1.0368,1.0368,0,0,0,.1894-.0176l10.12-1.94a1,1,0,0,0,.7354-1.3642Z" style="fill:#c6cbef"/><rect height="29.5" rx="1" style="fill:#e84a5f" width="51.31" x="2.0001" y="31"/><path d="M51.8253,16.7939a24.1,24.1,0,0,0-2.7989-5.5927,25.2215,25.2215,0,0,0-3.6132-4.3321,1.0014,1.0014,0,0,0-1.4014.0147l-2.67,2.68a1,1,0,0,0,.0185,1.4306A19.9246,19.9246,0,0,1,47.52,25.36a1,1,0,0,0,1,1h3.79a.9994.9994,0,0,0,1-1A25.21,25.21,0,0,0,51.8253,16.7939Z" style="fill:#e84a5f"/><path d="M49.52,25.36a21.9621,21.9621,0,0,1-1.13,6.96,1.0135,1.0135,0,0,1-.95.68H7.87a1,1,0,0,1-.95-.68,21.8709,21.8709,0,0,1-1.13-6.96,21.3209,21.3209,0,0,1,.18-2.79,18.5521,18.5521,0,0,1,.35-2A21.9047,21.9047,0,0,1,27.66,3.5c.19,0,.37.01.56.02A21.8527,21.8527,0,0,1,48.98,20.57a18.9682,18.9682,0,0,1,.35,2A19.9142,19.9142,0,0,1,49.52,25.36Z" style="fill:#949bdd"/><path d="M49.33,22.57a18.9682,18.9682,0,0,0-.35-2H39.74C38.58,11,33.97,3.95,28.22,3.52c-.19-.01-.37-.02-.56-.02l-.0034,0-.0013,0-.0027.0005C21.646,3.5065,16.77,10.6942,15.57,20.57H6.32a18.5521,18.5521,0,0,0-.35,2h9.41c-.07.91-.1,1.84-.1,2.79a37.881,37.881,0,0,0,.62,6.89l.19.75h2.06l-.3-1.18a36.1826,36.1826,0,0,1-.57-6.46c0-.94.04-1.87.11-2.79h9.2652V32a1,1,0,0,0,2,0V22.57H37.92c.07.92.11,1.85.11,2.79a36.6153,36.6153,0,0,1-.55,6.39L37.16,33h2.06l.21-.82a38.2763,38.2763,0,0,0,.6-6.82c0-.95-.03-1.88-.1-2.79Zm-31.73-2c1.07-7.9371,4.7174-14.1351,9.0553-14.9687V20.57Zm11.0553,0V5.5992L28.66,5.6c4.33.84,7.98,7.03,9.05,14.97Z" style="fill:#d6daf2"/><path d="M53.31,32v5.5H2V32a1.0029,1.0029,0,0,1,1-1H52.31A1.0029,1.0029,0,0,1,53.31,32Z" style="fill:#d6daf2"/><path d="M53.31,54.5v5a1.0029,1.0029,0,0,1-1,1H3a1.0029,1.0029,0,0,1-1-1v-5Z" style="fill:#d6daf2"/><path d="M22.27,44.44a5.174,5.174,0,0,0-.87-1.72A5.5092,5.5092,0,0,0,17,40.5a5.4736,5.4736,0,0,0-4.79,2.82,5.2627,5.2627,0,0,0-.7,2.55.57.57,0,0,0-.01.13,5.5344,5.5344,0,0,0,1.23,3.46,5.4951,5.4951,0,0,0,9.74-2.9A5.09,5.09,0,0,0,22.5,46,5.406,5.406,0,0,0,22.27,44.44Z" style="fill:#febf63"/><path d="M22.47,46.56c-.18.09-.37.18-.56.26a32.5962,32.5962,0,0,1-3.93,1.46,32.9085,32.9085,0,0,1-4.64,1.09c-.21.03-.41.06-.61.09a16.4713,16.4713,0,0,1-2.19.16q-2.94,0-3.42-1.5c-.57-1.87,2.38-3.62,5.09-4.8a5.2627,5.2627,0,0,0-.7,2.55,8.4176,8.4176,0,0,0-2.32,1.61,7.2908,7.2908,0,0,0,2.54.08c.38-.03.82-.09,1.3-.16a32.14,32.14,0,0,0,4.36-1.03A32.28,32.28,0,0,0,21.09,45c.44-.2.83-.38,1.18-.56a8.5786,8.5786,0,0,0,2.54-1.74,9.5915,9.5915,0,0,0-3.41.02,5.3724,5.3724,0,0,0-2.02-1.67c3.16-.66,6.88-.95,7.5,1.02C27.31,43.48,25.83,45,22.47,46.56Z" style="fill:#ede682"/><path d="M47,43.5v17H31v-17a1.0029,1.0029,0,0,1,1-1H46A1.0029,1.0029,0,0,1,47,43.5Z" style="fill:#949bdd"/><path d="M61.9239,14.7979l-4-9.68a.9994.9994,0,0,0-1.5029-.4336l-7.9879,5.667a25.5332,25.5332,0,0,0-3.02-3.4825,1.0014,1.0014,0,0,0-1.4014.0147L42.0167,8.8861,42.01,8.88A21.6314,21.6314,0,0,0,28.22,3.52c-.19-.01-.37-.02-.56-.02h-.02a21.6546,21.6546,0,0,0-6.57,1.02c.52.25,1.04.52,1.54.81.66.36,1.3.74,1.93,1.13.72.46,1.43.94,2.12,1.45.69.49,1.35,1.01,2,1.56A38.2465,38.2465,0,0,1,37.68,20.4a36.91,36.91,0,0,1,2.35,5.06A38.3148,38.3148,0,0,1,41.64,31c.14.66.26,1.33.37,2a36.8741,36.8741,0,0,1,.43,4.5q.03.735.03,1.47c0,1.19-.05,2.37-.16,3.53a38.193,38.193,0,0,1-3.11,12,38.0593,38.0593,0,0,1-3.32,6H52.31a1.0029,1.0029,0,0,0,1-1V32a1.0029,1.0029,0,0,0-1-1H48.78a20.8441,20.8441,0,0,0,.71-4.64h2.82a.9994.9994,0,0,0,1-1,25.2546,25.2546,0,0,0-1.1421-7.4686l9.021-1.73a1,1,0,0,0,.7354-1.3642Z" style="opacity:0.1"/></g></svg>