<?xml version="1.0" ?><svg id="Filled" viewBox="0 0 64 64" xmlns="http://www.w3.org/2000/svg"><title/><circle cx="53" cy="32" r="3" style="fill:#fd7283;stroke:#000;stroke-linecap:round;stroke-linejoin:round;stroke-width:2px"/><line style="fill:none;stroke:#000;stroke-linecap:round;stroke-linejoin:round;stroke-width:2px" x1="46" x2="50" y1="32" y2="32"/><circle cx="53" cy="9" r="3" style="fill:#2a8fe7;stroke:#000;stroke-linecap:round;stroke-linejoin:round;stroke-width:2px"/><line style="fill:none;stroke:#000;stroke-linecap:round;stroke-linejoin:round;stroke-width:2px" x1="45" x2="50" y1="9" y2="9"/><circle cx="53" cy="55" r="3" style="fill:#2a8fe7;stroke:#000;stroke-linecap:round;stroke-linejoin:round;stroke-width:2px"/><line style="fill:none;stroke:#000;stroke-linecap:round;stroke-linejoin:round;stroke-width:2px" x1="45" x2="50" y1="55" y2="55"/><circle cx="11" cy="32" r="3" style="fill:#2a8fe7;stroke:#000;stroke-linecap:round;stroke-linejoin:round;stroke-width:2px"/><line style="fill:none;stroke:#000;stroke-linecap:round;stroke-linejoin:round;stroke-width:2px" x1="18" x2="14" y1="32" y2="32"/><circle cx="11" cy="9" r="3" style="fill:#fd7283;stroke:#000;stroke-linecap:round;stroke-linejoin:round;stroke-width:2px"/><line style="fill:none;stroke:#000;stroke-linecap:round;stroke-linejoin:round;stroke-width:2px" x1="19" x2="14" y1="9" y2="9"/><circle cx="11" cy="55" r="3" style="fill:#fd7283;stroke:#000;stroke-linecap:round;stroke-linejoin:round;stroke-width:2px"/><line style="fill:none;stroke:#000;stroke-linecap:round;stroke-linejoin:round;stroke-width:2px" x1="19" x2="14" y1="55" y2="55"/><line style="fill:none;stroke:#000;stroke-linecap:round;stroke-linejoin:round;stroke-width:2px" x1="21" x2="43" y1="29" y2="29"/><line style="fill:none;stroke:#000;stroke-linecap:round;stroke-linejoin:round;stroke-width:2px" x1="21" x2="43" y1="35" y2="35"/><line style="fill:none;stroke:#000;stroke-linecap:round;stroke-linejoin:round;stroke-width:2px" x1="21" x2="43" y1="52" y2="52"/><line style="fill:none;stroke:#000;stroke-linecap:round;stroke-linejoin:round;stroke-width:2px" x1="21" x2="43" y1="58" y2="58"/><line style="fill:none;stroke:#000;stroke-linecap:round;stroke-linejoin:round;stroke-width:2px" x1="21" x2="43" y1="12" y2="12"/><line style="fill:none;stroke:#000;stroke-linecap:round;stroke-linejoin:round;stroke-width:2px" x1="21" x2="43" y1="6" y2="6"/><path d="M42,4V8A10,10,0,0,1,32,18h0A14,14,0,0,0,18,32h0A14,14,0,0,0,32,46h0A10,10,0,0,1,42,56v4a2,2,0,0,0,2,2h0a2,2,0,0,0,2-2V56A14,14,0,0,0,32,42h0A10,10,0,0,1,22,32h0A10,10,0,0,1,32,22h0A14,14,0,0,0,46,8V4a2,2,0,0,0-2-2h0A2,2,0,0,0,42,4Z" style="fill:#fd7283;stroke:#000;stroke-linecap:round;stroke-linejoin:round;stroke-width:2px"/><path d="M22,4V8A10,10,0,0,0,32,18h0A14,14,0,0,1,46,32h0A14,14,0,0,1,32,46h0A10,10,0,0,0,22,56v4a2,2,0,0,1-2,2h0a2,2,0,0,1-2-2V56A14,14,0,0,1,32,42h0A10,10,0,0,0,42,32h0A10,10,0,0,0,32,22h0A14,14,0,0,1,18,8V4a2,2,0,0,1,2-2h0A2,2,0,0,1,22,4Z" style="fill:#ffdd64;stroke:#000;stroke-linecap:round;stroke-linejoin:round;stroke-width:2px"/><path d="M22,32A10,10,0,0,1,32,22h0A14,14,0,0,0,46,8V4a2,2,0,0,0-2-2h0a2,2,0,0,0-2,2V8A10,10,0,0,1,32,18h0A14,14,0,0,0,18,32" style="fill:#fd7283;stroke:#000;stroke-linecap:round;stroke-linejoin:round;stroke-width:2px"/></svg>