<?xml version="1.0" ?><svg data-name="Layer 1" id="Layer_1" viewBox="0 0 272 272" xmlns="http://www.w3.org/2000/svg"><defs><style>.cls-1{fill:#e57373;}.cls-2{fill:#64b5f6;}.cls-3{fill:#f54337;}.cls-4{fill:#efefef;}</style></defs><title/><rect class="cls-1" height="32" width="16" x="128" y="224"/><path class="cls-2" d="M176.19,66.52c-1.6-1-3.22-1.88-4.88-2.74A90.26,90.26,0,0,0,138.88,54L116.19,81.08A65.35,65.35,0,0,1,129.1,79.8a64.2,64.2,0,0,1,24.58,4.84c1.8.74,3.57,1.56,5.28,2.46a63.89,63.89,0,0,1,34.41,60.63c-2,31.85-27.76,57.64-59.82,59.79a64.45,64.45,0,0,1-58.61-29.26c-.2-.29-.38-.57-.56-.86A63.13,63.13,0,0,1,68,163.78a61.58,61.58,0,0,1-3-14.1l-1.33-1.09-6.93-5.68a6,6,0,0,0-.52-.36l-9.49,11.24-.66.77L40,161.74a89.71,89.71,0,0,0,8.92,24.56A91,91,0,0,0,130,234c49.4-.46,89.74-40.65,90-89.7A90,90,0,0,0,176.19,66.52Z"/><polygon class="cls-1" points="175.84 49 156 33.4 172.16 15 192 30.6 175.84 49"/><path class="cls-3" d="M167.47,18.73,190,37.07a4.21,4.21,0,0,0,5.8-.49L199,32.89a3.9,3.9,0,0,0-.51-5.62L176,8.93a4.21,4.21,0,0,0-5.8.49L167,13.11A3.9,3.9,0,0,0,167.47,18.73Z"/><path class="cls-3" d="M180.07,53.13,174.4,60l-4.57,5.53L155.91,82.32l-3.19,3.86L104.85,144,77,120.3,81.36,115l28.86-34.87,0,0,22.53-27.21,3.14-3.8,16.3-19.69a3.94,3.94,0,0,1,5.6-.49l1.6,1.36L178,46.1l1.6,1.36A4.07,4.07,0,0,1,180.07,53.13Z"/><path class="cls-3" d="M73.12,120.72l31.74,27.53a3.06,3.06,0,0,0,4.41-.4h0a3.31,3.31,0,0,0-.39-4.56L77.14,115.76a3.06,3.06,0,0,0-4.41.4h0A3.31,3.31,0,0,0,73.12,120.72Z"/><path class="cls-4" d="M94.06,176.6l-5.15,6a4.08,4.08,0,0,1-5.65.49l-8.32-6.83-1.76-1.44L46.43,152.9a3.89,3.89,0,0,1-.36-.34,3.7,3.7,0,0,1-.59-.79,3.84,3.84,0,0,1,.46-4.37l5.15-6a4.1,4.1,0,0,1,4.41-1.18,3.34,3.34,0,0,1,.72.33,6,6,0,0,1,.52.36l6.93,5.68L65,147.68,93.57,171.1A3.84,3.84,0,0,1,94.06,176.6Z"/><path class="cls-3" d="M101.33,264h69.33a3.3,3.3,0,0,0,2.95-4.77h0A20.32,20.32,0,0,0,155.44,248H116.56a20.32,20.32,0,0,0-18.17,11.23h0A3.3,3.3,0,0,0,101.33,264Z"/></svg>